<?xml version="1.0" encoding="UTF-8"?>
<svg width="141px" height="22px" viewBox="0 0 141 22" version="1.1" xmlns="http://www.w3.org/2000/svg" xmlns:xlink="http://www.w3.org/1999/xlink">
    <g stroke="none" stroke-width="1" fill="none" fill-rule="evenodd">
        <g transform="translate(-240.000000, -56.000000)" fill="#008C4F" fill-rule="nonzero">
            <g transform="translate(240.000000, 56.000000)">
                <polygon points="112.517964 0.493029754 87.1590861 0.493029754 87.1590861 5.91635705 96.6552679 5.91635705 96.6552679 21.3932041 103.150399 21.3932041 103.150399 5.91635705 112.517964 5.91635705"></polygon>
                <polygon points="140.363427 21.3932041 140.363427 0.493029754 133.889732 0.493029754 133.889732 8.16714506 121.456808 8.16714506 121.456808 0.493029754 114.961677 0.493029754 114.961677 21.3932041 121.456808 21.3932041 121.456808 13.5904724 133.889732 13.5904724 133.889732 21.3932041"></polygon>
                <polygon points="54.233273 15.9913129 38.0275993 15.9913129 38.0275993 0.493029754 31.5753404 0.493029754 31.5753404 21.3932041 54.233273 21.3932041"></polygon>
                <path d="M67.3950238,21.3932041 L91.4034292,21.3932041 L78.3274227,2.80812599 C77.8987012,2.1650437 77.3199271,1.6291418 76.5911005,1.1789842 C75.7765296,0.685954441 74.9619587,0.428721525 74.1688239,0.428721525 C73.3756891,0.428721525 72.6039903,0.685954441 71.7679834,1.1789842 C71.0177207,1.65057787 70.4389466,2.18647978 69.988789,2.80812599 L56.5912414,21.3932041 L64.62977,21.3932041 L74.0616435,8.46725013 L79.4849708,15.9698768 L71.2963897,15.9698768 L67.3950238,21.3932041 Z"></path>
                <path d="M27.8025909,8.31719759 C27.8025909,5.9592292 26.7950953,4.02998234 24.7586681,2.57232915 C22.8079852,1.1789842 20.4071446,0.493029754 17.5347104,0.493029754 L0.107180381,0.493029754 L0.107180381,5.91635705 L18.1563566,5.91635705 C19.0566718,5.91635705 19.8069345,6.10928174 20.4285807,6.55943934 C21.0287908,6.98816087 21.3288959,7.56693492 21.3288959,8.29576152 C21.3288959,9.02458811 21.0073547,9.62479825 20.4071446,10.0749558 C19.8069345,10.5036774 19.0781079,10.7394742 18.1777927,10.7394742 L0.107180381,10.7394742 L0.107180381,21.4146402 L6.58087542,21.4146402 L6.58087542,16.1413654 L17.5132743,16.1413654 C20.3857085,16.1413654 22.8294212,15.455411 24.7586681,14.062066 C26.7950953,12.6044128 27.8025909,10.6537299 27.8025909,8.31719759 Z"></path>
            </g>
        </g>
    </g>
</svg>